<?xml version="1.0" standalone="no"?>
<!DOCTYPE svg PUBLIC "-//W3C//DTD SVG 20010904//EN"
 "http://www.w3.org/TR/2001/REC-SVG-20010904/DTD/svg10.dtd">
<svg version="1.0" xmlns="http://www.w3.org/2000/svg"
 width="1652.000000pt" height="1652.000000pt" viewBox="0 0 1652.000000 1652.000000"
 preserveAspectRatio="xMidYMid meet">
<metadata>
Created by potrace 1.11, written by Peter Selinger 2001-2013
</metadata>
<g transform="translate(0.000000,1652.000000) scale(0.100000,-0.100000)"
fill="#000000" stroke="none">
<path d="M15479 13008 c-1 -7 0 -17 1 -23 1 -5 1 -32 0 -60 -1 -27 -1 -61 0
-75 1 -14 2 -32 1 -40 0 -8 0 -108 0 -222 l0 -208 -6733 -1 c-3703 -1 -6746
-3 -6763 -4 -16 -1 -51 -4 -78 -6 -26 -1 -47 -5 -47 -8 0 -3 -19 -6 -43 -7
-39 -1 -90 -8 -141 -21 -11 -3 -30 -6 -41 -8 -11 -2 -22 -4 -25 -6 -3 -1 -9
-3 -15 -4 -5 -2 -13 -4 -17 -5 -5 -1 -11 -3 -15 -4 -5 -2 -28 -9 -53 -16 -25
-7 -48 -14 -52 -16 -5 -1 -9 -2 -10 -4 -2 -1 -10 -3 -19 -5 -33 -6 -246 -100
-314 -138 -120 -68 -215 -129 -215 -139 0 -5 -4 -7 -9 -4 -4 3 -19 -6 -31 -19
-13 -14 -28 -25 -35 -25 -6 0 -17 -9 -25 -20 -8 -11 -18 -20 -22 -20 -13 0
-176 -156 -248 -237 -53 -60 -137 -171 -183 -240 -63 -95 -168 -299 -202 -393
-15 -41 -31 -82 -35 -90 -4 -9 -11 -31 -16 -50 -10 -44 -9 -42 -17 -60 -4 -8
-9 -26 -11 -40 -3 -14 -5 -25 -6 -25 -1 0 -4 -11 -6 -25 -2 -14 -10 -59 -18
-101 -25 -130 -31 -208 -31 -384 1 -155 6 -236 20 -320 5 -32 18 -97 20 -105
1 -3 5 -25 9 -50 5 -25 11 -49 14 -55 3 -5 7 -16 8 -25 12 -104 208 -541 256
-571 5 -3 9 -8 7 -10 -5 -8 60 -104 97 -143 6 -6 13 -17 15 -23 4 -13 112
-135 170 -192 96 -97 286 -251 308 -251 6 0 11 -4 11 -10 0 -5 7 -10 15 -10 8
0 15 -4 15 -10 0 -5 7 -10 15 -10 8 0 15 -4 15 -10 0 -5 6 -10 14 -10 8 0 16
-4 18 -9 2 -7 267 -141 294 -149 5 -1 59 -20 120 -41 123 -42 136 -46 269 -71
207 -40 194 -39 1233 -40 777 0 862 -2 854 -16 -5 -8 -6 -36 -2 -60 4 -25 4
-47 0 -49 -4 -2 -4 -25 0 -50 4 -27 3 -45 -3 -45 -5 0 -5 -5 1 -13 6 -7 7 -18
3 -25 -4 -7 -5 -32 -2 -55 4 -23 4 -55 1 -72 -4 -16 -3 -40 2 -52 5 -15 4 -23
-3 -23 -8 0 -8 -4 -1 -13 6 -7 7 -18 2 -27 -4 -7 -5 -23 0 -34 4 -12 4 -30 0
-40 -3 -11 -4 -38 0 -60 3 -23 3 -54 0 -71 -4 -16 -3 -40 2 -52 5 -15 4 -23
-3 -23 -8 0 -8 -4 -1 -13 6 -7 7 -18 3 -25 -4 -7 -5 -33 -1 -58 4 -24 4 -47 0
-49 -4 -2 -4 -25 0 -50 4 -27 3 -45 -3 -45 -5 0 -5 -5 1 -13 6 -7 7 -18 3 -25
-4 -7 -5 -32 -2 -55 4 -23 4 -55 1 -72 -4 -16 -3 -40 2 -52 5 -15 4 -23 -3
-23 -8 0 -8 -4 -1 -13 6 -7 7 -18 3 -25 -4 -7 -5 -33 -1 -58 4 -24 4 -47 0
-49 -4 -2 -4 -25 0 -50 4 -27 3 -45 -3 -45 -5 0 -5 -5 1 -13 6 -7 7 -18 3 -25
-4 -7 -5 -32 -2 -55 4 -23 4 -55 1 -72 -4 -16 -3 -40 2 -52 5 -15 4 -23 -3
-23 -8 0 -8 -4 -1 -13 6 -7 7 -18 3 -25 -4 -7 -5 -33 -1 -58 4 -24 4 -47 0
-49 -4 -2 -4 -25 0 -50 4 -27 3 -45 -3 -45 -5 0 -5 -5 1 -13 6 -7 7 -18 3 -25
-4 -7 -5 -32 -2 -55 4 -23 4 -55 1 -72 -4 -16 -3 -40 2 -52 5 -15 4 -23 -3
-23 -8 0 -8 -4 -1 -13 6 -7 7 -18 3 -25 -4 -7 -5 -33 -1 -58 4 -24 4 -47 0
-49 -4 -2 -4 -25 0 -50 4 -27 3 -45 -3 -45 -5 0 -5 -5 1 -13 6 -7 7 -18 3 -25
-4 -7 -5 -32 -2 -55 4 -23 4 -55 1 -72 -4 -16 -3 -40 2 -52 5 -15 4 -23 -3
-23 -8 0 -8 -4 -1 -13 6 -7 7 -18 3 -25 -4 -7 -5 -33 -1 -58 4 -24 4 -47 0
-49 -4 -2 -4 -25 0 -50 4 -27 3 -45 -3 -45 -5 0 -5 -5 1 -13 6 -7 7 -18 3 -25
-4 -7 -5 -32 -1 -55 3 -23 3 -56 0 -73 -4 -16 -4 -39 0 -50 4 -10 5 -25 3 -31
-4 -10 -298 -13 -1383 -13 l-1378 0 -4 51 c-1 28 -1 52 1 55 6 5 7 214 1 214
-3 0 -5 27 -5 60 0 33 2 60 5 60 3 0 5 45 5 100 l0 100 -225 1 c-124 1 -229 0
-235 -1 -5 -1 -20 -2 -32 -1 -40 2 -118 3 -158 1 -11 -1 -24 -1 -30 -1 -5 0
-31 1 -56 2 -52 3 -67 -4 -68 -29 -3 -69 -1 -134 4 -142 3 -6 2 -10 -4 -10 -6
0 -6 -11 -1 -29 4 -16 6 -32 3 -35 -8 -7 -6 -393 2 -406 3 -5 2 -10 -4 -10 -6
0 -7 -11 -3 -27 4 -16 6 -41 5 -58 -6 -66 -5 -133 1 -144 4 -6 3 -11 -3 -11
-6 0 -7 -11 -2 -27 3 -16 5 -44 3 -63 -1 -19 -4 -46 -5 -60 -1 -14 1 -40 4
-57 4 -18 3 -33 -1 -33 -5 0 -5 -13 0 -29 4 -16 6 -32 3 -35 -8 -7 -6 -393 2
-406 3 -5 2 -10 -4 -10 -6 0 -7 -11 -3 -27 4 -16 6 -41 5 -58 -6 -66 -5 -133
1 -144 4 -6 3 -11 -3 -11 -6 0 -7 -11 -2 -27 6 -25 6 -70 1 -98 -1 -5 -2 -29
-1 -52 l1 -43 401 0 401 0 -4 60 c-1 33 -1 60 2 60 4 0 3 195 -1 210 -1 3 -1
9 0 14 1 5 2 73 2 152 l0 144 6592 1 c3626 1 6610 2 6632 4 125 7 221 20 365
52 63 13 120 26 125 27 6 1 15 4 20 7 9 6 54 19 83 25 8 1 21 6 30 10 9 4 19
8 22 8 3 1 19 6 35 13 47 18 70 26 75 28 49 17 222 102 296 146 106 62 109 64
114 69 14 14 70 50 79 50 5 0 11 4 13 8 2 5 30 28 62 53 79 59 131 105 246
220 96 96 121 125 204 234 25 33 49 65 54 70 24 30 107 169 104 177 -1 4 2 8
7 8 9 0 123 226 136 270 4 14 11 30 15 35 6 8 60 163 66 188 1 4 2 8 4 10 1 1
3 9 5 17 12 45 27 107 30 120 2 8 4 15 5 15 1 0 4 16 7 35 2 19 8 37 11 40 4
3 7 19 8 35 0 17 3 50 7 75 22 139 30 464 15 590 -4 30 -10 80 -14 110 -7 59
-11 85 -14 85 -1 0 -3 11 -5 25 -1 14 -7 43 -13 65 -6 22 -13 51 -16 65 -28
143 -158 461 -254 620 -12 19 -29 48 -38 64 -26 46 -151 215 -207 281 -93 108
-253 262 -337 325 -19 14 -45 34 -59 46 -34 27 -164 113 -221 146 -63 36 -199
108 -205 108 -3 0 -18 6 -33 14 -89 46 -411 148 -506 160 -12 2 -37 6 -56 9
-19 4 -51 9 -70 12 -19 2 -46 8 -60 12 -14 4 -1652 9 -3640 10 -6501 5 -8795
9 -8825 16 -16 4 -46 9 -65 12 -19 3 -42 8 -50 11 -8 3 -26 8 -40 10 -113 21
-410 168 -459 228 -8 9 -17 16 -22 16 -16 0 -192 182 -234 240 -22 30 -42 57
-45 60 -21 20 -130 241 -124 251 3 5 1 9 -5 9 -5 0 -13 15 -16 33 -4 17 -10
37 -13 42 -4 6 -8 19 -10 30 -5 29 -10 50 -12 50 -2 0 -7 25 -23 115 -8 44
-12 134 -11 215 2 137 5 173 26 265 5 25 11 52 13 60 26 126 177 423 237 468
10 7 18 18 18 23 0 28 228 233 320 288 87 52 237 122 270 126 3 0 10 3 15 7
13 8 120 36 169 44 21 3 48 9 60 12 11 4 3064 8 6783 9 6446 3 6762 2 6762
-14 0 -10 0 -43 0 -73 0 -30 0 -61 0 -67 0 -7 1 -28 2 -45 0 -18 0 -37 -1 -43
-1 -5 -2 -96 -1 -202 l1 -191 128 -2 c70 -1 134 -2 142 -1 31 0 452 0 458 0 4
-1 9 0 12 1 20 7 40 7 40 -1 0 -6 4 -7 10 -4 5 3 10 16 10 28 0 12 0 29 1 37
1 20 0 130 -1 155 -1 11 -1 27 -1 35 1 8 0 40 0 70 -1 30 -1 62 0 70 1 8 1 31
0 50 -1 19 -1 42 0 50 0 8 0 40 0 70 -1 30 -1 61 0 68 2 29 3 39 2 77 0 22 0
51 0 65 1 14 1 36 0 50 -1 23 -2 145 -2 180 1 8 0 51 0 95 -1 44 -1 87 0 95 1
8 1 31 0 50 -1 19 -1 42 0 50 0 8 0 51 0 95 0 89 0 129 2 148 0 6 0 30 0 52
-1 22 -1 47 0 55 1 20 0 150 -1 175 -1 11 -1 27 -1 35 1 12 0 98 -1 135 0 6 1
15 2 20 1 6 2 25 1 43 l-1 32 -400 0 c-313 0 -400 -3 -401 -12z m-10494 -4888
c10 -11 24 -20 32 -20 7 0 13 -4 13 -10 0 -5 7 -10 15 -10 8 0 15 -4 15 -10 0
-5 6 -10 14 -10 8 0 16 -3 18 -7 2 -5 57 -44 123 -88 66 -44 122 -83 123 -87
2 -5 9 -8 16 -8 7 0 21 -9 31 -20 10 -11 24 -20 32 -20 7 0 13 -4 13 -9 0 -5
14 -14 30 -21 17 -7 30 -15 30 -19 0 -3 23 -19 50 -36 27 -16 50 -33 50 -37 0
-5 5 -8 10 -8 6 0 28 -13 51 -29 22 -17 45 -31 50 -33 14 -5 29 -77 18 -84 -5
-3 -7 -9 -4 -14 9 -14 6 -137 -4 -170 -1 -3 -5 0 -9 6 -4 5 -77 57 -162 114
-85 57 -157 106 -160 109 -3 3 -17 12 -32 20 -16 8 -28 18 -28 23 0 4 -5 8
-11 8 -6 0 -41 21 -78 48 -36 26 -74 52 -83 57 -10 6 -52 34 -93 63 -42 28
-80 52 -85 52 -6 0 -10 3 -10 8 0 4 -16 16 -35 26 -19 11 -35 23 -35 28 0 4
-4 8 -9 8 -5 0 -52 29 -104 65 -52 36 -100 65 -106 65 -6 0 -11 4 -11 10 0 5
-13 16 -30 25 -16 9 -30 20 -30 25 0 6 71 10 183 10 171 0 185 -1 202 -20z
m736 -27 c2 -100 0 -165 -4 -170 -3 -2 -12 3 -21 12 -9 9 -16 13 -16 9 0 -4
-8 0 -17 8 -10 9 -76 55 -148 102 l-130 86 168 0 167 0 1 -47z m1561 -22 c2
-38 1 -86 -2 -107 -3 -22 -3 -55 0 -74 3 -19 3 -63 0 -96 -3 -34 -3 -72 0 -85
3 -13 3 -41 0 -63 -3 -21 -3 -82 0 -135 3 -53 3 -112 0 -131 -3 -19 -3 -55 0
-80 3 -25 3 -61 0 -80 -3 -19 -3 -64 0 -100 3 -36 3 -92 0 -125 -3 -33 -3 -88
0 -122 3 -35 3 -63 0 -63 -3 0 -4 -28 -3 -62 1 -35 2 -126 2 -203 0 -77 0
-149 0 -160 0 -11 0 -69 0 -130 0 -60 0 -117 0 -125 0 -8 0 -37 0 -65 0 -27 0
-57 0 -65 0 -8 0 -51 0 -95 0 -44 0 -87 0 -95 0 -12 0 -69 -1 -125 0 -5 0 -62
1 -125 0 -63 0 -122 0 -130 0 -8 0 -44 0 -80 0 -36 0 -72 0 -80 0 -8 0 -64 0
-125 0 -172 -1 -200 -9 -205 -5 -3 -177 -4 -384 -2 l-375 2 9 25 c5 14 5 27 0
30 -5 3 -5 18 -1 33 7 28 6 90 -2 98 -3 3 -1 21 3 40 5 19 4 37 -1 40 -5 3 -7
10 -3 15 7 12 9 117 2 124 -3 4 -2 22 2 41 5 20 4 34 -1 34 -6 0 -6 7 0 18 5
10 6 24 1 31 -4 8 -5 25 -1 40 7 28 6 89 -2 97 -3 3 -1 21 3 40 5 19 4 37 -1
40 -5 3 -7 10 -3 15 7 12 9 117 2 124 -3 4 -2 22 2 41 5 20 4 34 -1 34 -6 0
-6 7 0 18 5 10 6 24 1 31 -4 8 -5 25 -1 40 7 28 6 89 -2 97 -3 3 -1 21 3 40 5
19 4 37 -1 40 -5 3 -7 10 -4 15 7 10 8 129 3 192 -2 20 -1 37 2 37 5 0 4 45
-2 123 -2 20 -1 37 2 37 5 0 4 45 -2 123 -2 20 -1 37 2 37 5 0 4 45 -2 123 -2
20 -1 37 2 37 5 0 4 45 -2 123 -2 20 -1 37 2 37 5 0 4 45 -2 123 -2 20 -1 37
2 37 5 0 4 45 -2 123 -2 20 -1 37 2 37 5 0 4 45 -2 123 -2 20 -1 37 2 37 4 0
4 68 0 80 -2 3 -1 9 0 15 4 23 3 115 -2 120 -3 4 -2 22 2 41 5 20 4 34 -1 34
-6 0 -6 7 0 18 5 10 6 24 1 31 -4 8 -5 25 -1 40 7 29 6 90 -3 98 -3 3 -1 13 4
22 5 10 5 23 0 31 -5 9 -5 19 1 26 7 8 7 14 0 18 -6 4 -8 13 -4 21 4 13 60 15
383 15 l378 0 4 -69z m1133 59 c-3 -5 -12 -10 -20 -10 -7 0 -15 -3 -17 -7 -4
-10 -65 -53 -73 -53 -4 0 -21 -11 -39 -25 -18 -14 -35 -25 -39 -25 -3 0 -36
-21 -74 -46 l-68 -46 -5 34 c-3 18 -3 49 0 68 3 19 3 52 0 72 -4 21 -5 40 -2
43 10 10 343 5 337 -5z m764 -8 c-13 -10 -51 -36 -84 -57 -33 -22 -64 -43 -70
-47 -5 -5 -32 -23 -60 -41 -27 -17 -56 -37 -63 -44 -7 -7 -17 -13 -22 -13 -5
0 -15 -6 -22 -12 -7 -7 -80 -58 -163 -113 -82 -55 -154 -103 -160 -108 -5 -4
-39 -26 -75 -50 -36 -23 -67 -44 -70 -47 -3 -3 -74 -52 -159 -108 -153 -103
-154 -104 -149 -72 3 17 1 33 -4 36 -5 3 -6 10 -2 15 3 6 6 48 6 95 0 53 3 84
10 84 6 0 26 11 44 25 18 14 35 25 37 25 5 0 197 125 213 139 7 5 15 7 18 4 3
-4 6 -2 6 3 0 5 23 23 50 39 28 16 50 33 50 37 0 4 3 7 8 6 5 -2 212 129 327
207 15 10 64 14 189 14 165 1 168 1 145 -17z m5136 6 c11 -3 43 -9 72 -13 157
-21 420 -116 538 -194 22 -14 52 -32 67 -40 15 -8 37 -22 47 -33 11 -10 24
-18 28 -18 5 0 15 -9 23 -20 8 -11 18 -20 22 -20 23 0 235 -213 278 -279 8
-13 20 -29 25 -35 47 -52 186 -308 201 -371 4 -16 11 -36 17 -42 5 -7 6 -13 2
-13 -4 0 -3 -6 3 -13 6 -7 14 -28 17 -47 3 -18 8 -36 10 -40 2 -3 6 -17 9 -31
3 -13 7 -35 11 -49 5 -27 12 -68 25 -165 7 -59 5 -330 -3 -370 -3 -11 -8 -40
-12 -65 -11 -71 -44 -199 -71 -275 -45 -125 -161 -338 -234 -429 -168 -206
-371 -371 -575 -466 -75 -35 -117 -53 -125 -54 -3 -1 -25 -9 -50 -18 -53 -20
-188 -54 -245 -62 -22 -3 -51 -9 -65 -13 -14 -4 -993 -9 -2177 -10 l-2152 -3
-3 22 c-2 13 -1 35 3 49 4 15 3 32 -1 40 -5 7 -4 21 1 30 5 10 5 20 1 23 -5 3
-6 28 -2 56 4 28 3 53 -2 56 -4 3 -4 14 2 24 6 10 6 21 2 24 -5 3 -5 30 -2 60
3 31 3 56 -2 56 -4 0 -3 11 2 25 5 13 6 26 1 29 -8 5 -5 71 4 86 3 6 1 10 -5
10 -7 0 -8 6 -1 17 5 10 5 26 0 40 -5 13 -4 25 1 28 6 3 6 15 0 30 -6 15 -6
27 0 30 7 4 6 13 0 25 -7 13 -7 21 0 25 8 5 8 11 1 19 -6 7 -8 15 -5 19 9 8
10 97 2 97 -4 0 -3 11 2 25 5 13 5 27 1 29 -5 3 -5 23 -1 45 4 22 4 45 -1 52
-4 7 -3 21 2 30 5 10 5 20 1 23 -5 3 -6 28 -2 56 4 28 3 53 -2 56 -4 3 -4 14
2 24 6 10 7 21 2 24 -9 5 -6 81 3 96 3 6 1 10 -5 10 -7 0 -8 6 -1 17 5 10 5
26 0 40 -5 13 -4 25 1 28 6 3 6 15 0 30 -6 15 -6 27 0 30 7 4 6 13 0 25 -7 13
-7 21 1 26 7 4 8 9 0 17 -6 6 -7 16 -1 28 7 11 7 20 0 24 -6 4 -6 15 0 30 6
17 6 25 -1 25 -6 0 -7 6 0 17 5 10 5 26 0 40 -5 13 -4 25 1 28 6 3 6 15 0 30
-6 15 -6 27 0 30 7 4 7 13 0 24 -6 12 -5 22 1 28 8 8 7 13 0 17 -8 5 -8 13 -1
26 6 12 7 21 0 25 -6 4 -6 15 0 30 6 17 6 25 -1 25 -6 0 -7 6 0 17 5 10 5 26
0 40 -5 13 -4 25 1 28 6 3 6 15 0 30 -6 15 -6 27 0 30 7 4 6 13 0 25 -7 13 -7
21 1 26 7 4 8 9 0 17 -6 6 -7 16 -1 28 7 11 7 20 0 24 -6 4 -6 15 0 30 6 17 6
25 -1 25 -6 0 -7 6 0 17 5 10 5 26 0 40 -5 13 -4 25 1 28 6 3 6 15 0 30 -6 15
-6 27 0 30 7 4 6 13 0 25 -7 13 -7 21 1 26 7 4 8 9 0 17 -6 6 -7 16 -1 28 7
11 7 20 0 24 -6 4 -6 15 0 30 6 17 6 25 -1 25 -6 0 -7 6 0 17 5 10 5 26 0 40
-5 13 -4 25 1 28 6 3 6 15 0 30 -6 15 -6 27 0 30 7 4 7 13 0 24 -6 12 -5 22 1
28 8 8 7 13 0 17 -8 5 -8 13 -1 26 6 12 7 21 0 25 -6 4 -6 15 0 30 6 17 6 25
-1 25 -6 0 -7 6 0 17 5 10 5 26 1 39 -5 12 -6 25 -2 28 8 9 10 46 2 51 -3 2
-4 20 -2 40 l4 36 2147 -4 c1180 -1 2155 -5 2166 -9z m-5120 -287 c-3 -5 -2
-12 3 -15 9 -5 9 -47 -1 -62 -3 -5 -2 -16 3 -24 4 -7 4 -24 0 -36 -6 -14 -5
-26 0 -29 6 -4 7 -13 1 -23 -4 -9 -7 -22 -5 -27 2 -6 -47 -44 -108 -85 -62
-41 -114 -78 -116 -82 -2 -5 -10 -8 -18 -8 -8 0 -14 -4 -14 -8 0 -4 -15 -16
-32 -27 -18 -10 -35 -21 -38 -24 -3 -3 -13 -10 -22 -16 -37 -21 -254 -171
-272 -187 -11 -10 -25 -18 -32 -18 -7 0 -14 -3 -16 -7 -5 -12 -95 -73 -106
-73 -6 0 -12 -4 -14 -8 -1 -4 -46 -37 -98 -72 -52 -36 -97 -67 -100 -70 -13
-13 -70 -50 -78 -50 -5 0 -15 -7 -22 -15 -24 -29 -31 -15 -31 58 1 166 1 161
24 179 12 10 26 18 30 18 4 0 15 6 23 13 8 6 20 17 27 22 7 6 66 46 132 90 66
44 122 82 125 85 3 3 17 11 33 19 15 8 27 18 27 23 0 4 4 8 10 8 5 0 48 27 95
60 47 33 85 57 85 53 0 -3 8 4 19 15 10 12 21 22 24 22 3 0 41 25 85 55 44 30
85 55 91 55 6 0 11 3 11 8 0 4 28 25 63 47 34 22 64 42 67 45 10 11 60 40 66
39 4 0 11 6 16 15 5 9 14 16 19 16 6 0 17 7 25 15 17 17 28 20 19 6z m-4508
-63 c43 -28 80 -54 83 -58 5 -6 54 -39 83 -55 10 -5 92 -61 182 -122 91 -62
169 -113 174 -113 5 0 11 -4 13 -9 2 -5 66 -51 143 -102 77 -51 142 -95 145
-99 3 -4 12 -9 20 -13 23 -11 52 -30 79 -54 14 -13 30 -23 36 -23 18 0 68 -46
72 -66 6 -35 5 -122 -1 -133 -4 -5 -2 -12 2 -15 14 -8 2 -56 -14 -56 -8 0 -14
3 -14 8 0 4 -9 12 -20 17 -34 17 -435 288 -438 297 -2 4 -8 8 -13 8 -10 0 -62
35 -87 58 -7 6 -17 12 -22 12 -5 0 -15 6 -22 13 -23 21 -77 57 -85 57 -5 0
-20 11 -35 25 -15 14 -29 25 -32 25 -4 0 -264 173 -282 188 -5 5 -20 14 -31
20 -19 11 -21 21 -22 127 0 63 2 115 4 115 3 0 40 -23 82 -52z m124 -607 c101
-68 186 -127 189 -130 3 -3 17 -12 32 -20 15 -8 37 -22 47 -33 11 -10 23 -18
26 -18 8 0 69 -44 73 -52 2 -5 9 -8 16 -8 7 0 21 -9 31 -20 10 -11 24 -20 32
-20 7 0 13 -4 13 -9 0 -5 15 -16 33 -24 17 -9 42 -25 54 -36 12 -12 25 -21 28
-21 4 0 21 -11 39 -25 18 -14 38 -25 44 -25 7 0 12 -3 12 -7 0 -5 52 -42 115
-83 114 -75 144 -107 122 -129 -8 -8 -8 -11 1 -11 9 0 10 -5 4 -16 -5 -8 -6
-34 -3 -57 4 -23 4 -57 1 -75 l-5 -33 -184 125 c-102 68 -192 129 -200 135
-112 78 -224 151 -231 151 -4 0 -10 4 -12 8 -1 5 -91 67 -198 139 -107 71
-213 142 -235 157 -41 28 -67 64 -58 79 3 4 5 51 5 103 0 72 2 92 12 87 7 -5
95 -64 197 -132z m4393 124 c3 -8 1 -15 -5 -15 -6 0 -7 -5 -3 -12 9 -14 8
-113 -1 -128 -3 -5 -2 -10 3 -10 5 0 7 -14 3 -32 -5 -27 -21 -43 -81 -85 -41
-29 -82 -56 -90 -60 -16 -7 -72 -44 -80 -53 -3 -3 -59 -41 -125 -85 -66 -44
-126 -86 -133 -92 -7 -7 -17 -13 -21 -13 -4 0 -18 -9 -31 -20 -13 -11 -29 -20
-35 -20 -7 0 -15 -7 -19 -15 -3 -8 -12 -15 -20 -15 -8 0 -16 -3 -18 -7 -1 -5
-37 -30 -78 -58 -41 -27 -76 -53 -78 -57 -2 -5 -10 -8 -18 -8 -8 0 -14 -4 -14
-10 0 -5 -6 -10 -13 -10 -7 0 -22 -8 -33 -19 -11 -10 -30 -22 -42 -25 -12 -4
-22 -11 -22 -15 0 -7 -95 -71 -106 -71 -2 0 -13 -9 -24 -20 -38 -38 -41 -29
-40 130 0 76 4 91 26 103 10 6 21 13 24 17 3 3 44 32 92 63 48 32 90 62 93 68
4 5 11 7 16 4 5 -4 9 -1 9 4 0 6 7 11 16 11 8 0 12 5 9 10 -3 6 0 10 8 10 8 0
25 9 38 21 13 11 40 30 61 41 21 12 38 25 38 29 0 3 14 12 30 19 17 7 30 16
30 20 0 4 14 13 30 20 17 7 30 16 30 21 0 5 7 9 15 9 8 0 15 4 15 8 0 5 12 15
27 23 15 8 34 20 43 27 27 25 321 222 330 222 5 0 10 3 12 8 4 9 110 82 119
82 4 0 9 -7 13 -15z m-5 -617 c-4 -16 -4 -28 1 -28 5 0 5 -13 0 -28 -4 -16 -4
-36 2 -45 6 -12 1 -24 -22 -48 -16 -18 -30 -29 -30 -25 0 4 -24 -10 -52 -31
-62 -45 -158 -112 -192 -133 -14 -8 -71 -47 -128 -86 -56 -38 -159 -108 -228
-154 -69 -47 -126 -88 -128 -92 -2 -5 -10 -8 -18 -8 -8 0 -14 -4 -14 -10 0 -5
-5 -10 -11 -10 -6 0 -28 -13 -49 -30 -21 -16 -42 -30 -48 -30 -6 0 -12 -3 -14
-8 -1 -4 -45 -35 -95 -70 l-93 -62 0 83 c-1 146 -1 151 25 175 14 13 25 20 25
17 0 -4 18 7 39 24 21 17 43 31 49 31 6 0 12 3 14 8 3 7 90 69 142 102 23 14
108 72 359 243 54 37 100 67 103 67 3 0 17 11 32 25 15 14 31 25 37 25 6 0 22
11 37 24 14 14 29 22 32 19 3 -4 6 -1 6 5 0 7 7 12 15 12 8 0 15 4 15 8 0 5
16 17 35 28 19 10 35 22 35 26 0 5 6 8 13 8 7 0 23 9 35 20 12 11 25 20 30 20
5 0 16 7 23 17 13 14 15 12 19 -23 3 -21 2 -51 -1 -66z m-4564 80 c14 -6 25
-15 25 -20 0 -4 6 -8 14 -8 8 0 16 -3 18 -7 5 -12 66 -53 78 -53 5 0 10 -4 10
-9 0 -5 8 -12 18 -15 9 -3 30 -17 46 -31 16 -14 35 -25 42 -25 7 0 14 -4 16
-8 2 -5 73 -55 158 -112 85 -57 157 -108 158 -112 2 -4 8 -8 12 -8 5 0 60 -34
122 -76 118 -79 127 -85 195 -134 24 -16 47 -30 53 -30 5 0 10 -3 10 -7 0 -13
96 -63 105 -55 5 4 5 1 1 -5 -4 -7 -3 -13 3 -13 6 0 8 -9 3 -22 -4 -13 -5 -41
-2 -63 3 -22 3 -52 -1 -66 -4 -15 -4 -32 1 -38 9 -16 1 -61 -12 -61 -8 0 -64
36 -78 50 -3 3 -39 27 -80 54 -41 27 -76 53 -78 58 -2 4 -9 8 -15 9 -7 0 -39
20 -72 45 -33 25 -68 47 -77 51 -10 3 -18 9 -18 14 0 5 -6 9 -14 9 -8 0 -16 4
-18 8 -1 5 -52 41 -113 82 -60 41 -112 77 -115 80 -3 3 -13 10 -22 15 -46 26
-323 220 -326 227 -2 4 -10 8 -17 8 -7 0 -27 14 -45 30 -24 22 -30 33 -22 43
6 7 7 18 3 26 -4 7 -5 30 -1 51 4 21 4 44 -1 51 -4 7 -4 22 0 33 5 12 6 27 4
34 -6 15 -1 15 32 0z m50 -572 c33 -23 62 -44 63 -48 2 -5 10 -8 18 -8 8 0 14
-4 14 -9 0 -5 9 -13 20 -16 11 -3 26 -12 32 -18 7 -7 49 -37 93 -67 44 -30 82
-58 83 -62 2 -4 8 -8 14 -8 6 0 40 -21 77 -47 36 -25 116 -80 176 -121 61 -42
112 -78 115 -82 3 -3 12 -9 20 -13 23 -11 52 -30 79 -55 15 -12 34 -25 44 -28
9 -3 17 -10 17 -15 0 -6 4 -8 9 -5 5 3 14 -1 20 -8 7 -8 40 -33 75 -55 58 -38
62 -43 65 -83 1 -23 4 -45 7 -50 3 -4 1 -8 -4 -8 -5 0 -6 -16 -2 -38 3 -21 3
-47 0 -58 -4 -10 -6 -22 -3 -26 2 -5 2 -8 -1 -8 -5 0 -149 94 -171 112 -5 5
-28 20 -50 34 -107 70 -221 150 -227 159 -4 5 -8 6 -8 1 0 -5 -10 0 -22 11
-13 11 -63 46 -113 79 -49 32 -92 61 -95 64 -3 3 -45 32 -95 64 -49 33 -92 62
-95 65 -3 3 -13 11 -22 16 -10 6 -62 39 -117 75 l-99 65 0 123 c-1 93 2 121
11 116 7 -4 39 -26 72 -48z m4519 42 c-6 -10 -9 -63 -4 -70 6 -9 4 -71 -3 -75
-4 -2 -3 -13 3 -23 7 -13 7 -21 0 -25 -6 -4 -8 -10 -6 -14 3 -4 -39 -36 -92
-71 -53 -35 -114 -77 -134 -93 -21 -16 -38 -25 -38 -20 0 4 -4 3 -8 -2 -11
-15 -79 -65 -89 -65 -5 0 -18 -8 -29 -18 -10 -9 -116 -82 -234 -161 -118 -80
-235 -159 -260 -176 -25 -17 -53 -34 -62 -38 -10 -3 -18 -11 -18 -17 0 -5 -5
-10 -10 -10 -9 0 -66 -36 -80 -50 -3 -3 -17 -13 -31 -22 l-27 -17 0 100 c-1
55 -3 103 -6 108 -9 13 51 60 173 136 46 29 78 50 91 62 8 7 65 46 125 86 61
39 116 78 123 84 7 7 17 13 21 13 4 0 18 9 31 20 13 11 29 20 35 20 7 0 15 7
19 15 3 8 12 15 20 15 8 0 16 3 18 8 2 4 37 29 78 57 41 27 77 53 78 57 2 5
10 8 18 8 8 0 14 5 14 10 0 6 6 10 13 10 7 0 23 9 35 20 12 11 26 20 31 20 5
0 16 7 25 15 8 8 48 37 88 65 71 48 107 63 92 38z m0 -557 c-1 -27 -5 -54 -8
-60 -4 -6 -3 -11 2 -11 6 0 7 -14 2 -34 -4 -18 -3 -40 1 -49 6 -9 5 -18 0 -22
-6 -3 -8 -12 -5 -19 3 -8 -7 -18 -25 -25 -16 -7 -32 -19 -35 -27 -3 -8 -11
-14 -19 -14 -7 0 -22 -8 -33 -18 -10 -10 -47 -35 -81 -56 -35 -22 -63 -43 -63
-48 0 -5 -4 -7 -9 -4 -5 4 -11 3 -13 -1 -5 -11 -125 -93 -137 -93 -5 0 -11 -4
-13 -8 -4 -12 -95 -72 -107 -72 -6 0 -11 -3 -11 -7 0 -5 -28 -26 -63 -48 -34
-22 -63 -43 -65 -47 -2 -5 -10 -8 -17 -8 -7 0 -15 -4 -17 -8 -1 -4 -19 -18
-39 -30 -34 -20 -49 -22 -203 -22 -137 0 -166 2 -166 14 0 8 12 24 28 35 15
12 32 25 38 30 5 4 21 14 35 21 13 7 26 16 29 19 3 4 28 21 55 39 28 17 55 35
60 39 6 5 57 40 115 78 58 39 107 72 110 75 3 3 59 41 125 84 66 44 122 82
125 85 3 3 17 12 32 20 15 8 36 22 45 31 10 9 25 19 33 23 20 9 54 30 60 38 4
5 76 54 163 112 11 6 26 17 35 24 30 22 37 14 36 -36z m-4580 19 c7 0 21 -9
31 -20 10 -11 23 -20 30 -20 7 0 20 -9 30 -20 10 -11 23 -20 30 -20 7 0 20 -9
30 -20 10 -11 24 -20 31 -20 7 0 14 -3 16 -8 3 -8 343 -239 385 -262 15 -8 35
-22 43 -30 8 -8 27 -21 42 -29 15 -8 37 -22 47 -33 11 -10 25 -18 31 -18 5 0
10 -4 10 -10 0 -5 5 -10 10 -10 12 0 73 -41 78 -52 2 -5 10 -8 18 -8 8 0 14
-4 14 -8 0 -5 10 -14 23 -21 24 -12 44 -25 134 -85 72 -49 68 -45 59 -53 -9
-9 -275 -11 -302 -2 -12 4 -75 43 -140 86 -66 43 -124 80 -129 83 -6 3 -57 36
-115 74 -58 38 -107 69 -110 69 -3 1 -14 9 -24 19 -11 10 -32 24 -48 30 -15 7
-28 16 -28 19 0 4 -13 12 -29 19 -16 6 -37 20 -47 31 -9 10 -21 16 -25 13 -5
-3 -9 0 -9 6 0 6 -8 14 -17 18 -10 4 -35 18 -55 30 -36 23 -38 27 -38 97 -1
115 2 178 6 168 3 -7 11 -13 18 -13z m201 -658 l140 -92 -182 1 -182 1 0 118
0 119 42 -27 c23 -15 105 -69 182 -120z m4376 124 c-7 -8 -8 -16 -4 -19 10 -6
9 -59 -1 -75 -3 -6 -2 -13 4 -17 7 -4 6 -14 -2 -28 -6 -12 -10 -24 -9 -27 2
-3 7 -13 12 -23 7 -12 6 -19 -3 -22 -8 -3 -88 -4 -178 -3 l-165 3 60 40 c33
22 65 44 70 48 6 5 53 37 105 73 91 61 138 82 111 50z"/>
</g>
</svg>
