<svg xmlns="http://www.w3.org/2000/svg" viewBox="0 0 668 464"><title>Artboard 1</title><g id="4b7f6933-08d9-46a1-8d44-c2c565dd761c" data-name="Right Detail"><path d="M478,212H178a33,33,0,0,1,0-66H512v16h20V110H512v16H178a53,53,0,0,0,0,106h42v80H151V296H131v52h20V332H478a60,60,0,0,0,0-120ZM268,237.64,259.64,232H268ZM240,232h8.91L268,244.87v6.43l-28-18.87Zm28,26.53v5.82l-28-18.88v-5.81Zm-28-5.83,28,18.89v6l-28-18.89ZM240,266l27.57,18.6.43-.64v7.33l-28-19.14Zm28,32.56v5.81l-28-18.85v-6.1Zm-28-5.81,28,18.86V312h-7.74L240,298.86ZM288,232h19v80H288Zm67,.1L327,251v-6.16L346.72,232H355Zm0,66.7L335.43,312H327v-.75l28-18.87Zm0-40L327,277.7v-6.14l28-19.14Zm0,7.23v6L327,291v-6Zm-28,32.16,28-18.89v5.82L327,304Zm28-53.06-28,19.14v-6.1l28-18.86Zm-28-7.51V232h8.7ZM355,306v6h-8.84Zm-115,0,9.24,6H240Zm238,6H375V232H478a40,40,0,0,1,0,80Z" style="fill:#282828"/></g></svg>